<svg viewBox="0 0 40 40" xmlns="http://www.w3.org/2000/svg">
  <defs>
    <linearGradient id="vanaraGradient" x1="0%" y1="0%" x2="100%" y2="100%">
      <stop offset="0%" stop-color="#2D5A3D"/>
      <stop offset="100%" stop-color="#264653"/>
    </linearGradient>
    <linearGradient id="goldGradient" x1="0%" y1="0%" x2="100%" y2="100%">
      <stop offset="0%" stop-color="#F4A261"/>
      <stop offset="100%" stop-color="#E76F51"/>
    </linearGradient>
  </defs>
  <path
    d="M20 4C24.5 4 28 7.5 28 12C28 14 27 15.5 25.5 16.5L32 22C33 23 33 24.5 32 25.5L28 29.5C27 30.5 25.5 30.5 24.5 29.5L20 25L15.5 29.5C14.5 30.5 13 30.5 12 29.5L8 25.5C7 24.5 7 23 8 22L14.5 16.5C13 15.5 12 14 12 12C12 7.5 15.5 4 20 4Z"
    fill="url(#vanaraGradient)"
  />
  <circle cx="20" cy="12" r="3" fill="url(#goldGradient)" />
</svg>
